<?xml version="1.0" encoding="UTF-8"?>
<svg width="64px" height="64px" viewBox="0 0 64 64" version="1.1" xmlns="http://www.w3.org/2000/svg" xmlns:xlink="http://www.w3.org/1999/xlink">
    <!-- Generator: Sketch 59.1 (86144) - https://sketch.com -->
    <title>Source icons / 64px / gold / ic-microfertilizer-64px</title>
    <desc>Created with Sketch.</desc>
    <g id="Source-icons-/-64px-/-gold-/-ic-microfertilizer-64px" stroke="none" stroke-width="1" fill="none" fill-rule="evenodd">
        <g id="Source-icons-/-64px-/-black-/-ic-microfertilizer-64px">
            <rect id="container" x="0" y="0" width="64" height="64"></rect>
            <path d="M32,60 C20.954305,60 12,51.045695 12,40 C12,32.6362033 18.6666667,20.6362033 32,4 C45.3333333,20.6362033 52,32.6362033 52,40 C52,51.045695 43.045695,60 32,60 Z M48,40 C48,34.3869369 42.6869818,24.3458941 32,10.4715912 C21.3130182,24.3458941 16,34.3869369 16,40 C16,48.836556 23.163444,56 32,56 C40.836556,56 48,48.836556 48,40 Z M32,53 L32,51 C38.0724658,51 43,46.0138047 43,39.8571429 L45,39.8571429 C45,47.1131107 39.1823682,53 32,53 Z" id="Shape" fill="#FFCE00" fill-rule="evenodd"></path>
        </g>
    </g>
</svg>