<?xml version="1.0" encoding="UTF-8"?>
<svg width="48px" height="50px" viewBox="0 0 48 50" version="1.1" xmlns="http://www.w3.org/2000/svg" xmlns:xlink="http://www.w3.org/1999/xlink">
    <!-- Generator: Sketch 59.1 (86144) - https://sketch.com -->
    <title>Source icons / 64px / ic-grain-64px</title>
    <desc>Created with Sketch.</desc>
    <g id="(S6)-[page]-1.-Home" stroke="none" stroke-width="1" fill="none" fill-rule="evenodd">
        <g id="001-00-00-00-00-Home" transform="translate(-1060.000000, -4259.000000)">
            <g id="company" transform="translate(0.000000, 3110.000000)">
                <g id="directions" transform="translate(135.000000, 958.000000)">
                    <g id="Group-6" transform="translate(0.000000, 144.000000)">
                        <g id="technics" transform="translate(877.000000, 0.000000)">
                            <g id="Source-icons-/-64px-/-ic-agricultural_machinery-64px" transform="translate(40.000000, 40.000000)">
                                <rect id="container" x="0" y="0" width="64" height="64"></rect>
                                <path d="M12,42.5351838 L12,53 L19,53 L19,47.5351838 L15.5547002,49.8320503 L14.4452998,48.1679497 L19,45.1314829 L19,37.5351838 L15.5547002,39.8320503 L14.4452998,38.1679497 L19,35.1314829 L19,28 L12,28 L12,30.1314829 L16.5547002,33.1679497 L15.4452998,34.8320503 L12,32.5351838 L12,40.1314829 L16.5547002,43.1679497 L15.4452998,44.8320503 L12,42.5351838 L12,42.5351838 Z M45,47.5351838 L45,53 L52,53 L52,42.5351838 L48.5547002,44.8320503 L47.4452998,43.1679497 L52,40.1314829 L52,32.5351838 L48.5547002,34.8320503 L47.4452998,33.1679497 L52,30.1314829 L52,28 L45,28 L45,35.1314829 L49.5547002,38.1679497 L48.4452998,39.8320503 L45,37.5351838 L45,45.1314829 L49.5547002,48.1679497 L48.4452998,49.8320503 L45,47.5351838 Z M45,11 L52,11 L52,18 L48,18 L48,15 L45,15 L45,24 L56,24 L56,57 L41,57 L41,47 L23,47 L23,57 L8,57 L8,24 L19,24 L19,15 L16,15 L16,18 L12,18 L12,11 L19,11 L19,7 L45,7 L45,11 Z M23,15 L23,27 L41,27 L41,15 L23,15 Z M23,13 L41,13 L41,11 L23,11 L23,13 Z M37,43 L37,31 L35,31 L35,43 L37,43 Z M39,43 L41,43 L41,31 L39,31 L39,43 Z M33,43 L33,31 L31,31 L31,43 L33,43 Z M29,43 L29,31 L27,31 L27,43 L29,43 Z M25,43 L25,31 L23,31 L23,43 L25,43 Z" id="Shape" fill="#FFCE00" fill-rule="evenodd"></path>
                            </g>
                        </g>
                    </g>
                </g>
            </g>
        </g>
    </g>
</svg>