<?xml version="1.0" encoding="UTF-8"?>
<svg width="56px" height="54px" viewBox="0 0 56 54" version="1.1" xmlns="http://www.w3.org/2000/svg" xmlns:xlink="http://www.w3.org/1999/xlink">
    <!-- Generator: Sketch 59.1 (86144) - https://sketch.com -->
    <title>Source icons / 64px / ic-grain-64px</title>
    <desc>Created with Sketch.</desc>
    <g id="(S6)-[page]-1.-Home" stroke="none" stroke-width="1" fill="none" fill-rule="evenodd">
        <g id="001-00-00-00-00-Home" transform="translate(-179.000000, -4717.000000)">
            <g id="company" transform="translate(0.000000, 3110.000000)">
                <g id="directions" transform="translate(135.000000, 958.000000)">
                    <g id="Group-6" transform="translate(0.000000, 144.000000)">
                        <g id="spares" transform="translate(0.000000, 460.000000)">
                            <g id="Source-icons-/-64px-/-ic-spares-64px" transform="translate(40.000000, 40.000000)">
                                <rect id="container" x="0" y="0" width="64" height="64"></rect>
                                <path d="M11.111538,22.5133591 L10.2679492,19.1435935 L13.7320508,17.1435935 L16.2257681,19.5563454 C16.4957647,19.4745621 16.7694754,19.4013255 17.0465856,19.3369504 L18,16 L22,16 L22.9534144,19.3369504 C23.2305246,19.4013255 23.5042353,19.4745621 23.7742319,19.5563454 L26.2679492,17.1435935 L29.7320508,19.1435935 L28.888462,22.5133591 C29.0942473,22.7062465 29.2937535,22.9057527 29.4866409,23.111538 L32.8564065,22.2679492 L34.8564065,25.7320508 L32.4436546,28.2257681 C32.5254379,28.4957647 32.5986745,28.7694754 32.6630496,29.0465856 L36,30 L36,34 L32.6630496,34.9534144 C32.5986745,35.2305246 32.5254379,35.5042353 32.4436546,35.7742319 L34.8564065,38.2679492 L32.8564065,41.7320508 L29.4866409,40.888462 C29.2937535,41.0942473 29.0942473,41.2937535 28.888462,41.4866409 L29.7320508,44.8564065 L26.2679492,46.8564065 L23.7742319,44.4436546 C23.5042353,44.5254379 23.2305246,44.5986745 22.9534144,44.6630496 L22,48 L18,48 L17.0465856,44.6630496 C16.7694754,44.5986745 16.4957647,44.5254379 16.2257681,44.4436546 L13.7320508,46.8564065 L10.2679492,44.8564065 L11.111538,41.4866409 C10.9057527,41.2937535 10.7062465,41.0942473 10.5133591,40.888462 L7.14359354,41.7320508 L5.14359354,38.2679492 L7.55634543,35.7742319 C7.47456208,35.5042353 7.40132549,35.2305246 7.33695045,34.9534144 L4,34 L4,30 L7.33695045,29.0465856 C7.40132549,28.7694754 7.47456208,28.4957647 7.55634543,28.2257681 L5.14359354,25.7320508 L7.14359354,22.2679492 L10.5133591,23.111538 C10.7062465,22.9057527 10.9057527,22.7062465 11.111538,22.5133591 L11.111538,22.5133591 Z M15.6496094,24.1193944 L15.3649075,24.2837671 C14.1033229,25.0432228 13.0432228,26.1033229 12.2837671,27.3649075 L12.1193944,27.6496094 C11.406064,28.9390332 11,30.4220959 11,32 C11,33.5779041 11.406064,35.0609668 12.1193944,36.3503906 L12.2837671,36.6350925 C13.0432228,37.8966771 14.1033229,38.9567772 15.3649075,39.7162329 L15.6496094,39.8806056 C16.9390332,40.593936 18.4220959,41 20,41 C21.5779041,41 23.0609668,40.593936 24.3503906,39.8806056 L24.6350925,39.7162329 C25.8966771,38.9567772 26.9567772,37.8966771 27.7162329,36.6350925 L27.8806056,36.3503906 C28.593936,35.0609668 29,33.5779041 29,32 C29,30.4220959 28.593936,28.9390332 27.8806056,27.6496094 L27.7162329,27.3649075 C26.9567772,26.1033229 25.8966771,25.0432228 24.6350925,24.2837671 L24.3503906,24.1193944 C23.0609668,23.406064 21.5779041,23 20,23 C18.4220959,23 16.9390332,23.406064 15.6496094,24.1193944 L15.6496094,24.1193944 Z M20,39 C16.1340068,39 13,35.8659932 13,32 C13,28.1340068 16.1340068,25 20,25 C23.8659932,25 27,28.1340068 27,32 C27,35.8659932 23.8659932,39 20,39 Z M20,35 C21.6568542,35 23,33.6568542 23,32 C23,30.3431458 21.6568542,29 20,29 C18.3431458,29 17,30.3431458 17,32 C17,33.6568542 18.3431458,35 20,35 Z M58.4852814,20.6568542 L55.6568542,23.4852814 L53.2821016,22.297905 C53.1368296,22.3633401 52.9892524,22.424565 52.8395253,22.4814242 L52,25 L48,25 L47.1604747,22.4814242 C47.0107476,22.424565 46.8631704,22.3633401 46.7178984,22.297905 L44.3431458,23.4852814 L41.5147186,20.6568542 L42.702095,18.2821016 C42.6366599,18.1368296 42.575435,17.9892524 42.5185758,17.8395253 L40,17 L40,13 L42.5185758,12.1604747 C42.575435,12.0107476 42.6366599,11.8631704 42.702095,11.7178984 L41.5147186,9.34314575 L44.3431458,6.51471863 L46.7178984,7.70209496 C46.8631704,7.6366599 47.0107476,7.57543504 47.1604747,7.51857583 L48,5 L52,5 L52.8395253,7.51857583 C52.9892524,7.57543504 53.1368296,7.6366599 53.2821016,7.70209496 L55.6568542,6.51471863 L58.4852814,9.34314575 L57.297905,11.7178984 C57.3633401,11.8631704 57.424565,12.0107476 57.4814242,12.1604747 L60,13 L60,17 L57.4814242,17.8395253 C57.424565,17.9892524 57.3633401,18.1368296 57.297905,18.2821016 L58.4852814,20.6568542 Z M55.0842176,18.3268628 L55.4743566,17.4607179 C55.5234435,17.3517405 55.5692487,17.2412899 55.6117033,17.1294945 L55.9486279,16.2422723 L58,15.5584816 L58,14.4415184 L55.9486279,13.7577277 L55.6117033,12.8705055 C55.5692487,12.7587101 55.5234435,12.6482595 55.4743566,12.5392821 L55.0842176,11.6731372 L56.0517603,9.73805185 L55.2619482,8.94823965 L53.3268628,9.91578235 L52.4607179,9.52564337 C52.3517405,9.47655654 52.2412899,9.43075131 52.1294945,9.38829674 L51.2422723,9.05137207 L50.5584816,7 L49.4415184,7 L48.7577277,9.05137207 L47.8705055,9.38829674 C47.7587101,9.43075131 47.6482595,9.47655654 47.5392821,9.52564337 L46.6731372,9.91578235 L44.7380518,8.94823965 L43.9482397,9.73805185 L44.9157824,11.6731372 L44.5256434,12.5392821 C44.4765565,12.6482595 44.4307513,12.7587101 44.3882967,12.8705055 L44.0513721,13.7577277 L42,14.4415184 L42,15.5584816 L44.0513721,16.2422723 L44.3882967,17.1294945 C44.4307513,17.2412899 44.4765565,17.3517405 44.5256434,17.4607179 L44.9157824,18.3268628 L43.9482397,20.2619482 L44.7380518,21.0517603 L46.6731372,20.0842176 L47.5392821,20.4743566 C47.6482595,20.5234435 47.7587101,20.5692487 47.8705055,20.6117033 L48.7577277,20.9486279 L49.4415184,23 L50.5584816,23 L51.2422723,20.9486279 L52.1294945,20.6117033 C52.2412899,20.5692487 52.3517405,20.5234435 52.4607179,20.4743566 L53.3268628,20.0842176 L55.2619482,21.0517603 L56.0517603,20.2619482 L55.0842176,18.3268628 Z M50,19 C47.790861,19 46,17.209139 46,15 C46,12.790861 47.790861,11 50,11 C52.209139,11 54,12.790861 54,15 C54,17.209139 52.209139,19 50,19 Z M50,17 C51.1045695,17 52,16.1045695 52,15 C52,13.8954305 51.1045695,13 50,13 C48.8954305,13 48,13.8954305 48,15 C48,16.1045695 48.8954305,17 50,17 Z M58.4852814,54.6568542 L55.6568542,57.4852814 L53.2821016,56.297905 C53.1368296,56.3633401 52.9892524,56.424565 52.8395253,56.4814242 L52,59 L48,59 L47.1604747,56.4814242 C47.0107476,56.424565 46.8631704,56.3633401 46.7178984,56.297905 L44.3431458,57.4852814 L41.5147186,54.6568542 L42.702095,52.2821016 C42.6366599,52.1368296 42.575435,51.9892524 42.5185758,51.8395253 L40,51 L40,47 L42.5185758,46.1604747 C42.575435,46.0107476 42.6366599,45.8631704 42.702095,45.7178984 L41.5147186,43.3431458 L44.3431458,40.5147186 L46.7178984,41.702095 C46.8631704,41.6366599 47.0107476,41.575435 47.1604747,41.5185758 L48,39 L52,39 L52.8395253,41.5185758 C52.9892524,41.575435 53.1368296,41.6366599 53.2821016,41.702095 L55.6568542,40.5147186 L58.4852814,43.3431458 L57.297905,45.7178984 C57.3633401,45.8631704 57.424565,46.0107476 57.4814242,46.1604747 L60,47 L60,51 L57.4814242,51.8395253 C57.424565,51.9892524 57.3633401,52.1368296 57.297905,52.2821016 L58.4852814,54.6568542 Z M55.0842176,52.3268628 L55.4743566,51.4607179 C55.5234435,51.3517405 55.5692487,51.2412899 55.6117033,51.1294945 L55.9486279,50.2422723 L58,49.5584816 L58,48.4415184 L55.9486279,47.7577277 L55.6117033,46.8705055 C55.5692487,46.7587101 55.5234435,46.6482595 55.4743566,46.5392821 L55.0842176,45.6731372 L56.0517603,43.7380518 L55.2619482,42.9482397 L53.3268628,43.9157824 L52.4607179,43.5256434 C52.3517405,43.4765565 52.2412899,43.4307513 52.1294945,43.3882967 L51.2422723,43.0513721 L50.5584816,41 L49.4415184,41 L48.7577277,43.0513721 L47.8705055,43.3882967 C47.7587101,43.4307513 47.6482595,43.4765565 47.5392821,43.5256434 L46.6731372,43.9157824 L44.7380518,42.9482397 L43.9482397,43.7380518 L44.9157824,45.6731372 L44.5256434,46.5392821 C44.4765565,46.6482595 44.4307513,46.7587101 44.3882967,46.8705055 L44.0513721,47.7577277 L42,48.4415184 L42,49.5584816 L44.0513721,50.2422723 L44.3882967,51.1294945 C44.4307513,51.2412899 44.4765565,51.3517405 44.5256434,51.4607179 L44.9157824,52.3268628 L43.9482397,54.2619482 L44.7380518,55.0517603 L46.6731372,54.0842176 L47.5392821,54.4743566 C47.6482595,54.5234435 47.7587101,54.5692487 47.8705055,54.6117033 L48.7577277,54.9486279 L49.4415184,57 L50.5584816,57 L51.2422723,54.9486279 L52.1294945,54.6117033 C52.2412899,54.5692487 52.3517405,54.5234435 52.4607179,54.4743566 L53.3268628,54.0842176 L55.2619482,55.0517603 L56.0517603,54.2619482 L55.0842176,52.3268628 Z M50,53 C47.790861,53 46,51.209139 46,49 C46,46.790861 47.790861,45 50,45 C52.209139,45 54,46.790861 54,49 C54,51.209139 52.209139,53 50,53 Z M50,51 C51.1045695,51 52,50.1045695 52,49 C52,47.8954305 51.1045695,47 50,47 C48.8954305,47 48,47.8954305 48,49 C48,50.1045695 48.8954305,51 50,51 Z" id="Shape" fill="#FFCE00" fill-rule="evenodd"></path>
                            </g>
                        </g>
                    </g>
                </g>
            </g>
        </g>
    </g>
</svg>