<?xml version="1.0" encoding="UTF-8"?>
<svg width="142px" height="55px" viewBox="0 0 142 55" version="1.1" xmlns="http://www.w3.org/2000/svg" xmlns:xlink="http://www.w3.org/1999/xlink">
    <!-- Generator: Sketch 59.1 (86144) - https://sketch.com -->
    <title>Logo/BizonTech/Beta White</title>
    <desc>Created with Sketch.</desc>
    <g id="Logo/BizonTech/Beta-White" stroke="none" stroke-width="1" fill="none" fill-rule="evenodd">
        <g id="Group-16" transform="translate(0.000000, 5.000000)">
            <path d="M71.162176,29.0140081 C72.9922985,29.0140081 73.547532,29.8263311 73.547532,31.5945268 L73.547532,31.7752307 L72.5634797,31.7752307 L72.5634797,31.6198592 C72.5634797,30.3684427 72.2982566,29.9040169 71.0101478,29.9040169 L67.2606689,29.9040169 C65.2033303,29.9040169 64.4836749,30.1624065 64.4836749,31.7878969 L64.4836749,34.251887 C64.4836749,36.2911385 64.559689,37.2064796 66.2129961,37.2064796 L70.5937226,37.2064796 C72.1842354,37.2064796 72.6766747,36.9877773 72.6766747,35.7101841 L72.6766747,35.2330921 L73.6615532,35.2330921 L73.6615532,35.8267127 C73.6615532,37.8094169 72.4702403,38.0924971 70.8055935,38.1091661 L66.0361806,38.1099989 C64.4332743,38.1099989 63.4864028,37.0781292 63.4864028,35.2846011 L63.4864028,31.8267398 C63.4864028,29.3721127 64.925577,29.0326399 66.9608321,29.0147943 L71.162176,29.0140081 Z M47.654728,29.0781833 L47.654728,29.9817026 L43.3871963,29.9817026 L43.3871963,38.0323132 L42.3899242,38.0323132 L42.3899242,29.9817026 L38.1099989,29.9817026 L38.1099989,29.0781833 L47.654728,29.0781833 Z M60.0769218,29.0787744 L60.0769218,29.9822937 L52.0607375,29.9822937 L52.0607375,33.0272383 L59.7489043,33.0272383 L59.7489043,33.9172471 L52.0607375,33.9172471 L52.0607375,37.1428955 L60.0769218,37.1428955 L60.0769218,38.0329043 L51.0758589,38.0329043 L51.0758589,29.0787744 L60.0769218,29.0787744 Z M78.3201444,29.0787744 L78.3201444,33.0272383 L86.526364,33.0272383 L86.526364,29.0787744 L87.5112425,29.0787744 L87.5112425,38.0329043 L86.526364,38.0329043 L86.526364,33.9172471 L78.3201444,33.9172471 L78.3201444,38.0329043 L77.3360921,38.0329043 L77.3360921,29.0787744 L78.3201444,29.0787744 Z M91.6262502,9.26999974 C94.2462585,9.26999974 96.781164,9.97001612 96.781164,13.7149771 L96.781164,17.1458173 C96.781164,20.8916227 94.3668896,21.6093717 91.6262502,21.6093717 L87.6875622,21.6093717 C84.9469229,21.6093717 82.5491732,20.8916227 82.5491732,17.1458173 L82.5491732,13.7149771 C82.5491732,9.97001612 84.9642739,9.26999974 87.6875622,9.26999974 L91.6262502,9.26999974 Z M47.4441193,9.35697403 C49.8071668,9.35697403 51.1952507,9.81295575 51.1952507,12.4728491 C51.1952507,14.0138984 50.9035878,15.0111473 49.3279474,15.273759 L49.3279474,15.3961986 C51.0919706,15.5186381 51.3828072,16.6037057 51.3828072,18.1270224 C51.3828072,21.1018809 50.0302517,21.5046647 47.5126972,21.5046647 L38.1100816,21.5046647 L38.1100816,9.35697403 L47.4441193,9.35697403 Z M59.7737742,9.35705847 L59.7737742,21.5047492 L56.6051423,21.5047492 L56.6051423,9.35705847 L59.7737742,9.35705847 Z M77.8752966,9.35705847 L77.8752966,12.0878823 L69.8599385,18.5991324 L69.8599385,18.6869511 L77.8579455,18.6869511 L77.8579455,21.5047492 L64.551344,21.5047492 L64.551344,18.7747698 L72.8401876,12.2804079 L72.8401876,12.175701 L64.9272834,12.175701 L64.9272834,9.35705847 L77.8752966,9.35705847 Z M106.679193,9.35697403 L113.221365,17.6718851 L113.221365,9.35697403 L116.389997,9.35697403 L116.389997,21.5046647 L112.673567,21.5046647 L105.274585,12.4204956 L105.274585,21.5046647 L102.105953,21.5046647 L102.105953,9.35697403 L106.679193,9.35697403 Z M46.827744,16.4635335 L41.2787135,16.4635335 L41.2787135,18.843927 L46.759166,18.843927 C47.7870091,18.843927 48.2150016,18.5990479 48.2150016,17.6186872 C48.2150016,16.6214383 47.8547608,16.4635335 46.827744,16.4635335 Z M91.6262502,12.0877979 L87.6875622,12.0877979 C86.5399143,12.0877979 85.8037341,12.2625909 85.8037341,14.0654075 L85.8037341,16.7953869 C85.8037341,18.5990479 86.5399143,18.7915735 87.6875622,18.7915735 L91.6262502,18.7915735 C92.7738981,18.7915735 93.5274293,18.5990479 93.5274293,16.7953869 L93.5274293,14.0654075 C93.5274293,12.2625909 92.6879691,12.0877979 91.6262502,12.0877979 Z M47.0326516,12.0177118 L41.2787135,12.0177118 L41.2787135,14.2233122 L46.655886,14.2233122 C47.752307,14.2233122 48.0257925,14.0307866 48.0257925,13.0504259 C48.0257925,12.3335214 47.9233387,12.0177118 47.0326516,12.0177118 Z" id="Combined-Shape" fill="#FFFFFF"></path>
            <g id="Group" transform="translate(94.000000, 25.719999)">
                <rect id="Rectangle" fill="#FFCE00" x="0" y="0" width="47.3140802" height="16.9256321"></rect>
                <path d="M5.053,13.2800007 L11.631,13.2800007 C13.581,13.2800007 14.686,12.2140007 14.686,10.5890007 C14.686,9.40600069 14.14,8.61300069 13.048,8.26200069 C13.893,7.83300069 14.335,7.10500069 14.335,6.19500069 C14.335,4.62200069 13.269,3.84200069 11.15,3.84200069 L5.053,3.84200069 L5.053,13.2800007 Z M7.419,9.27600069 L10.565,9.27600069 C11.696,9.27600069 12.216,9.56200069 12.216,10.3680007 C12.216,11.2260007 11.683,11.3430007 10.565,11.3430007 L7.419,11.3430007 L7.419,9.27600069 Z M7.419,7.62500069 L7.419,5.77900069 L10.214,5.77900069 C11.345,5.77900069 11.865,5.92200069 11.865,6.65000069 C11.865,7.45600069 11.332,7.62500069 10.214,7.62500069 L7.419,7.62500069 Z M16.085,3.84200069 L16.085,13.2800007 L24.47,13.2800007 L24.47,11.3430007 L18.451,11.3430007 L18.451,9.28900069 L23.807,9.28900069 L23.807,7.35200069 L18.451,7.35200069 L18.451,5.77900069 L24.47,5.77900069 L24.47,3.84200069 L16.085,3.84200069 Z M24.894,3.84200069 L24.894,5.77900069 L28.131,5.77900069 L28.131,13.2800007 L30.497,13.2800007 L30.497,5.77900069 L33.734,5.77900069 L33.734,3.84200069 L24.894,3.84200069 Z M32.52,13.2800007 L35.068,13.2800007 L35.913,11.2780007 L40.073,11.2780007 L40.931,13.2800007 L43.557,13.2800007 L39.254,3.84200069 L36.992,3.84200069 L32.52,13.2800007 Z M36.719,9.36700069 L37.954,6.45500069 L39.215,9.36700069 L36.719,9.36700069 Z" id="BETA" fill="#000000" fill-rule="nonzero"></path>
            </g>
            <path d="M11.8284342,29.5258435 L13.3048306,29.5258435 L13.3048306,17.1596094 L9.86456391,13.7189708 L8.82056423,14.7633329 L11.8284342,17.7714247 L11.8284342,29.5258435 Z M22.1607428,17.7714247 L25.1694348,14.7633329 L24.1262572,13.7189708 L20.6851685,17.1596094 L20.6851685,29.5258435 L22.1607428,29.5258435 L22.1607428,17.7714247 Z M26.5965084,10.3334285 L26.5965084,8.85734189 L7.40335522,8.85734189 L7.40335522,10.3334285 L16.2568013,10.3334285 L16.2568013,33.9549256 L13.3048306,33.9549256 L13.3048306,35.4310122 L20.6851685,35.4310122 L20.6851685,33.9549256 L17.7331977,33.9549256 L17.7331977,10.3334285 L26.5965084,10.3334285 Z M19.2095941,41.3370033 L20.6851685,41.3370033 L20.6851685,36.9079211 L19.2095941,36.9079211 L19.2095941,41.3370033 Z M13.3056526,41.3370033 L14.781227,41.3370033 L14.781227,36.9079211 L13.3056526,36.9079211 L13.3056526,41.3370033 Z M16.2576234,44.2899988 L17.7331977,44.2899988 L17.7331977,36.9079211 L16.2576234,36.9079211 L16.2576234,44.2899988 Z M11.8366546,4.42825978 L22.1607428,4.42825978 L22.1607428,2.95217319 L11.8366546,2.95217319 L11.8366546,4.42825978 Z M33.9899991,0 C33.7729786,4.10672782 30.3647718,7.3812553 26.205214,7.3812553 L7.78478502,7.3812553 C3.62522724,7.3812553 0.217020406,4.10672782 0,0 L1.48543892,0 C1.70163727,3.29097412 4.44069785,5.9051687 7.78478502,5.9051687 L26.205214,5.9051687 C29.5493012,5.9051687 32.2883618,3.29097412 32.5037381,0 L33.9899991,0 Z" id="Fill-14" fill="#FFCE00"></path>
        </g>
    </g>
</svg>