<?xml version="1.0" encoding="UTF-8"?>
<svg width="40px" height="56px" viewBox="0 0 40 56" version="1.1" xmlns="http://www.w3.org/2000/svg" xmlns:xlink="http://www.w3.org/1999/xlink">
    <!-- Generator: Sketch 59.1 (86144) - https://sketch.com -->
    <title>Source icons / 64px / ic-grain-64px</title>
    <desc>Created with Sketch.</desc>
    <g id="(S6)-[page]-1.-Home" stroke="none" stroke-width="1" fill="none" fill-rule="evenodd">
        <g id="001-00-00-00-00-Home" transform="translate(-771.000000, -4256.000000)">
            <g id="company" transform="translate(0.000000, 3110.000000)">
                <g id="directions" transform="translate(135.000000, 958.000000)">
                    <g id="Group-6" transform="translate(0.000000, 144.000000)">
                        <g id="fertilizers" transform="translate(584.000000, 0.000000)">
                            <g id="Source-icons-/-64px-/-ic-fertilizer-64px" transform="translate(40.000000, 40.000000)">
                                <rect id="container" x="0" y="0" width="64" height="64"></rect>
                                <path d="M22.0829584,56 C22.0283988,55.6747915 22,55.3407122 22,55 C22,51.6862915 24.6862915,49 28,49 C31.3137085,49 34,51.6862915 34,55 C34,55.3407122 33.9716012,55.6747915 33.9170416,56 L43.7352385,56 L46.9438141,50.6523739 L34.4205401,38.4176263 L34.0486107,8 L30,8 L30,37.6568542 L17.0367963,50.620058 L20.2647615,56 L22.0829584,56 L22.0829584,56 Z M24.1256449,56 L31.87436,56 C31.9570614,55.6779017 32,55.3426016 32,55 C32,52.790861 30.209139,51 28,51 C25.790861,51 24,52.790861 24,55 C24,55.3426055 24.0429446,55.6779081 24.1256449,56 L24.1256449,56 Z M38.0489097,8 L38.4,36.7133333 L52,50 L46,60 L18,60 L12,50 L26,36 L26,8 L22,8 L22,4 L42,4 L42,8 L38.0489097,8 L38.0489097,8 Z M33.5,49 C31.5670034,49 30,47.4329966 30,45.5 C30,43.5670034 31.5670034,42 33.5,42 C35.4329966,42 37,43.5670034 37,45.5 C37,47.4329966 35.4329966,49 33.5,49 Z M33.5,47 C34.3284271,47 35,46.3284271 35,45.5 C35,44.6715729 34.3284271,44 33.5,44 C32.6715729,44 32,44.6715729 32,45.5 C32,46.3284271 32.6715729,47 33.5,47 Z" id="Shape" fill="#FFCE00" fill-rule="evenodd"></path>
                            </g>
                        </g>
                    </g>
                </g>
            </g>
        </g>
    </g>
</svg>