<?xml version="1.0" encoding="UTF-8"?>
<svg width="40px" height="56px" viewBox="0 0 40 56" version="1.1" xmlns="http://www.w3.org/2000/svg" xmlns:xlink="http://www.w3.org/1999/xlink">
    <!-- Generator: Sketch 59.1 (86144) - https://sketch.com -->
    <title>Source icons / 64px / ic-grain-64px</title>
    <desc>Created with Sketch.</desc>
    <g id="(S6)-[page]-1.-Home" stroke="none" stroke-width="1" fill="none" fill-rule="evenodd">
        <g id="001-00-00-00-00-Home" transform="translate(-479.000000, -4256.000000)">
            <g id="company" transform="translate(0.000000, 3110.000000)">
                <g id="directions" transform="translate(135.000000, 958.000000)">
                    <g id="Group-6" transform="translate(0.000000, 144.000000)">
                        <g id="ppp" transform="translate(292.000000, 0.000000)">
                            <g id="Source-icons-/-64px-/-ic-ppp-64px" transform="translate(40.000000, 40.000000)">
                                <rect id="container" x="0" y="0" width="64" height="64"></rect>
                                <path d="M48,45 L48,38 L16,38 L16,45 L48,45 Z M48,47 L16,47 L16,56 L48,56 L48,47 Z M48,36 L48,8 L25.5563492,8 L16,17.5563492 L16,36 L48,36 Z M22.7279221,8 L16,8 L16,14.7279221 L22.7279221,8 L22.7279221,8 Z M12,4 L52,4 L52,60 L12,60 L12,4 Z" id="Shape" fill="#FFCE00" fill-rule="evenodd"></path>
                            </g>
                        </g>
                    </g>
                </g>
            </g>
        </g>
    </g>
</svg>